<?xml version="1.0" encoding="UTF-8" standalone="no"?>
<!DOCTYPE svg PUBLIC "-//W3C//DTD SVG 1.1//EN" "http://www.w3.org/Graphics/SVG/1.1/DTD/svg11.dtd">
<svg width="100%" height="100%" viewBox="0 0 308 308" version="1.1" xmlns="http://www.w3.org/2000/svg" xmlns:xlink="http://www.w3.org/1999/xlink" xml:space="preserve" xmlns:serif="http://www.serif.com/" style="fill-rule:evenodd;clip-rule:evenodd;stroke-linecap:round;stroke-linejoin:round;stroke-miterlimit:1.5;">
    <g>
        <rect x="34.947" y="34.947" width="238.126" height="238.126" style="fill:none;fill-rule:nonzero;"/>
        <path d="M243.668,83.556l-75.165,-44.625c-4.482,-2.649 -9.503,-3.984 -14.503,-3.984c-5,-0 -10.021,1.335 -14.503,4.004l-75.185,44.625c-8.965,5.319 -14.503,15.161 -14.503,25.819l-0,89.25c-0,10.658 5.518,20.5 14.503,25.819l75.165,44.625c4.482,2.669 9.483,3.984 14.503,3.984c5,0 10.021,-1.335 14.503,-3.984l75.185,-44.625c8.965,-5.319 14.503,-15.181 14.503,-25.819l0,-89.27c0,-10.638 -5.518,-20.5 -14.503,-25.819m-58.211,139.354l0.119,6.415c0,0.777 -0.498,1.653 -1.096,1.972l-3.805,2.191c-0.597,0.299 -1.115,-0.059 -1.115,-0.836l-0.06,-6.316c-3.247,1.355 -6.554,1.674 -8.646,0.837c-0.399,-0.159 -0.578,-0.737 -0.418,-1.414l1.374,-5.798c0.12,-0.458 0.359,-0.916 0.678,-1.195c0.119,-0.12 0.239,-0.199 0.358,-0.259c0.219,-0.12 0.438,-0.139 0.618,-0.06c2.271,0.757 5.159,0.399 7.949,-0.996c3.546,-1.793 5.916,-5.419 5.876,-9.005c-0.039,-3.267 -1.793,-4.601 -6.076,-4.641c-5.458,0.02 -10.558,-1.056 -10.638,-9.105c-0.06,-6.614 3.367,-13.507 8.825,-17.85l-0.059,-6.474c-0,-0.797 0.478,-1.674 1.095,-1.992l3.686,-2.351c0.598,-0.299 1.116,0.079 1.116,0.856l0.059,6.475c2.71,-1.076 5.06,-1.375 7.192,-0.877c0.458,0.12 0.677,0.758 0.478,1.495l-1.434,5.737c-0.12,0.438 -0.359,0.877 -0.658,1.156c-0.111,0.111 -0.239,0.205 -0.378,0.279c-0.199,0.099 -0.379,0.119 -0.558,0.099c-0.976,-0.219 -3.287,-0.717 -6.933,1.116c-3.825,1.932 -5.16,5.259 -5.14,7.729c0.04,2.949 1.534,3.845 6.754,3.925c6.953,0.12 9.941,3.148 10.021,10.14c0.099,6.853 -3.566,14.244 -9.184,18.747m52.474,-120.528l-71.121,43.928c-8.865,5.18 -15.4,10.997 -15.42,21.695l0,87.636c0,6.395 2.59,10.539 6.555,11.754c-1.295,0.219 -2.63,0.379 -3.945,0.379c-4.164,-0 -8.268,-1.136 -11.873,-3.267l-75.166,-44.625c-7.351,-4.363 -11.913,-12.511 -11.913,-21.257l0,-89.25c0,-8.746 4.562,-16.894 11.913,-21.257l75.185,-44.625c3.606,-2.131 7.71,-3.267 11.874,-3.267c4.164,0 8.267,1.136 11.873,3.267l75.186,44.625c6.195,3.686 10.379,10.041 11.554,17.193c-2.53,-5.319 -8.148,-6.754 -14.702,-2.929" style="fill:#293138;fill-rule:nonzero;"/>
        <path d="M223.966,207.251l-18.727,11.196c-0.498,0.299 -0.857,0.618 -0.857,1.215l0,4.901c0,0.598 0.399,0.857 0.897,0.558l19.005,-11.555c0.498,-0.298 0.578,-0.836 0.578,-1.434l0,-4.323c0,-0.598 -0.398,-0.837 -0.896,-0.558" style="fill:#4fa847;fill-rule:nonzero;"/>
        <path d="M304,79l0,150c0,41.394 -33.606,75 -75,75l-150,0c-41.394,0 -75,-33.606 -75,-75l0,-150c0,-41.394 33.606,-75 75,-75l150,0c41.394,0 75,33.606 75,75Z" style="fill:none;stroke:#736490;stroke-width:8px;"/>
    </g>
</svg>
