<svg xmlns="http://www.w3.org/2000/svg" xml:space="preserve" style="fill-rule:evenodd;clip-rule:evenodd;stroke-linecap:round;stroke-linejoin:round;stroke-miterlimit:1.5" viewBox="0 0 308 308"><path d="M34.947 34.947h238.126v238.126H34.947z" style="fill:none;fill-rule:nonzero"/><path d="m243.668 83.556-75.165-44.625A28.5 28.5 0 0 0 154 34.947c-5 0-10.021 1.335-14.503 4.004L64.312 83.576c-8.965 5.319-14.503 15.161-14.503 25.819v89.25c0 10.658 5.518 20.5 14.503 25.819l75.165 44.625a28.27 28.27 0 0 0 14.503 3.984c5 0 10.021-1.335 14.503-3.984l75.185-44.625c8.965-5.319 14.503-15.181 14.503-25.819v-89.27c0-10.638-5.518-20.5-14.503-25.819M185.457 222.91l.119 6.415c0 .777-.498 1.653-1.096 1.972l-3.805 2.191c-.597.299-1.115-.059-1.115-.836l-.06-6.316c-3.247 1.355-6.554 1.674-8.646.837-.399-.159-.578-.737-.418-1.414l1.374-5.798c.12-.458.359-.916.678-1.195.119-.12.239-.199.358-.259.219-.12.438-.139.618-.06 2.271.757 5.159.399 7.949-.996 3.546-1.793 5.916-5.419 5.876-9.005-.039-3.267-1.793-4.601-6.076-4.641-5.458.02-10.558-1.056-10.638-9.105-.06-6.614 3.367-13.507 8.825-17.85l-.059-6.474c0-.797.478-1.674 1.095-1.992l3.686-2.351c.598-.299 1.116.079 1.116.856l.059 6.475c2.71-1.076 5.06-1.375 7.192-.877.458.12.677.758.478 1.495l-1.434 5.737c-.12.438-.359.877-.658 1.156a1.6 1.6 0 0 1-.378.279.96.96 0 0 1-.558.099c-.976-.219-3.287-.717-6.933 1.116-3.825 1.932-5.16 5.259-5.14 7.729.04 2.949 1.534 3.845 6.754 3.925 6.953.12 9.941 3.148 10.021 10.14.099 6.853-3.566 14.244-9.184 18.747m52.474-120.528L166.81 146.31c-8.865 5.18-15.4 10.997-15.42 21.695v87.636c0 6.395 2.59 10.539 6.555 11.754-1.295.219-2.63.379-3.945.379a23.36 23.36 0 0 1-11.873-3.267l-75.166-44.625c-7.351-4.363-11.913-12.511-11.913-21.257v-89.25c0-8.746 4.562-16.894 11.913-21.257l75.185-44.625a23.37 23.37 0 0 1 11.874-3.267c4.164 0 8.267 1.136 11.873 3.267l75.186 44.625c6.195 3.686 10.379 10.041 11.554 17.193-2.53-5.319-8.148-6.754-14.702-2.929" style="fill:#293138;fill-rule:nonzero"/><path d="m223.966 207.251-18.727 11.196c-.498.299-.857.618-.857 1.215v4.901c0 .598.399.857.897.558l19.005-11.555c.498-.298.578-.836.578-1.434v-4.323c0-.598-.398-.837-.896-.558" style="fill:#4fa847;fill-rule:nonzero"/><path d="M304 79v150c0 41.394-33.606 75-75 75H79c-41.394 0-75-33.606-75-75V79C4 37.606 37.606 4 79 4h150c41.394 0 75 33.606 75 75" style="fill:none;stroke:#736490;stroke-width:8px"/></svg>
