<svg xmlns="http://www.w3.org/2000/svg" xml:space="preserve" style="fill-rule:evenodd;clip-rule:evenodd;stroke-linecap:round;stroke-linejoin:round;stroke-miterlimit:1.5" viewBox="0 0 308 308"><clipPath id="a"><path d="M34 32.5h240v240H34z"/></clipPath><g clip-path="url(#a)"><path d="M256.686 212.163c1.669-2.894 2.702-6.151 2.702-9.081v-101.62c0-2.921-1.031-6.181-2.702-9.075l-103.725 59.888 103.725 59.887Z" style="fill:#00599c;fill-rule:nonzero"/><path d="m162.175 269.849 87.999-50.802c2.535-1.464 4.842-3.991 6.512-6.885l-103.725-59.887-103.736 59.887c1.669 2.894 3.977 5.419 6.512 6.885l87.999 50.802c5.068 2.929 13.369 2.929 18.435 0z" style="fill:#004482;fill-rule:nonzero"/><path d="M256.686 92.389c-1.67-2.898-3.977-5.426-6.512-6.883l-88.001-50.809c-5.068-2.93-13.367-2.93-18.435.001L55.739 85.506c-5.07 2.922-9.214 10.106-9.214 15.957V203.08c0 2.929 1.031 6.188 2.702 9.081l103.732-59.886z" style="fill:#659ad2;fill-rule:nonzero"/><path d="M152.959 81.316c-39.125 0-70.955 31.832-70.955 70.957 0 39.126 31.83 70.958 70.955 70.958 25.247 0 48.795-13.589 61.444-35.457L183.7 170.003c-6.337 10.95-18.112 17.747-30.741 17.747-19.561 0-35.478-15.915-35.478-35.479s15.918-35.479 35.478-35.479c12.619 0 24.407 6.805 30.732 17.747l30.712-17.769c-12.656-21.87-36.197-35.456-61.444-35.456zm55.191 59.128v7.888h-7.888v7.88h7.888v7.889h7.881v-7.889h7.88v-7.88h-7.88v-7.888zm29.561 0v7.888h-7.882v7.88h7.882v7.889h7.888v-7.889h7.881v-7.88h-7.881v-7.888z" style="fill:#fff;fill-rule:nonzero"/></g><path d="M304 79v150c0 41.394-33.606 75-75 75H79c-41.394 0-75-33.606-75-75V79C4 37.606 37.606 4 79 4h150c41.394 0 75 33.606 75 75" style="fill:none;stroke:#736490;stroke-width:8px"/></svg>
