<?xml version="1.0" encoding="UTF-8" standalone="no"?>
<!DOCTYPE svg PUBLIC "-//W3C//DTD SVG 1.1//EN" "http://www.w3.org/Graphics/SVG/1.1/DTD/svg11.dtd">
<svg width="100%" height="100%" viewBox="0 0 308 308" version="1.1" xmlns="http://www.w3.org/2000/svg" xmlns:xlink="http://www.w3.org/1999/xlink" xml:space="preserve" xmlns:serif="http://www.serif.com/" style="fill-rule:evenodd;clip-rule:evenodd;stroke-linecap:round;stroke-linejoin:round;stroke-miterlimit:1.5;">
    <g>
        <clipPath id="_clip1">
            <rect id="cplusplus-original.svg" x="34" y="32.5" width="240" height="240"/>
        </clipPath>
        <g clip-path="url(#_clip1)">
            <path d="M256.686,212.163c1.669,-2.894 2.702,-6.151 2.702,-9.081l0,-101.62c0,-2.921 -1.031,-6.181 -2.702,-9.075l-103.725,59.888l103.725,59.887Z" style="fill:#00599c;fill-rule:nonzero;"/>
            <path d="M162.175,269.849l87.999,-50.802c2.535,-1.464 4.842,-3.991 6.512,-6.885l-103.725,-59.887l-103.736,59.887c1.669,2.894 3.977,5.419 6.512,6.885l87.999,50.802c5.068,2.929 13.369,2.929 18.435,-0l0.004,-0Z" style="fill:#004482;fill-rule:nonzero;"/>
            <path d="M256.686,92.389c-1.67,-2.898 -3.977,-5.426 -6.512,-6.883l-88.001,-50.809c-5.068,-2.93 -13.367,-2.93 -18.435,0.001l-87.999,50.808c-5.07,2.922 -9.214,10.106 -9.214,15.957l0,101.617c0,2.929 1.031,6.188 2.702,9.081l103.732,-59.886l103.727,-59.886Z" style="fill:#659ad2;fill-rule:nonzero;"/>
            <path d="M152.959,81.316c-39.125,-0 -70.955,31.832 -70.955,70.957c-0,39.126 31.83,70.958 70.955,70.958c25.247,-0 48.795,-13.589 61.444,-35.457l-30.703,-17.771c-6.337,10.95 -18.112,17.747 -30.741,17.747c-19.561,-0 -35.478,-15.915 -35.478,-35.479c-0,-19.564 15.918,-35.479 35.478,-35.479c12.619,0 24.407,6.805 30.732,17.747l30.712,-17.769c-12.656,-21.87 -36.197,-35.456 -61.444,-35.456l0,0.002Zm55.191,59.128l0,7.888l-7.888,-0l-0,7.88l7.888,0l0,7.889l7.881,-0l-0,-7.889l7.88,0l0,-7.88l-7.88,-0l-0,-7.888l-7.881,-0Zm29.561,-0l0,7.888l-7.882,-0l-0,7.88l7.882,0l0,7.889l7.888,-0l0,-7.889l7.881,0l0,-7.88l-7.881,-0l0,-7.888l-7.888,-0Z" style="fill:#fff;fill-rule:nonzero;"/>
        </g>
        <path d="M304,79l0,150c0,41.394 -33.606,75 -75,75l-150,0c-41.394,0 -75,-33.606 -75,-75l0,-150c0,-41.394 33.606,-75 75,-75l150,0c41.394,0 75,33.606 75,75Z" style="fill:none;stroke:#736490;stroke-width:8px;"/>
    </g>
</svg>
