<svg xmlns="http://www.w3.org/2000/svg" xml:space="preserve" style="fill-rule:evenodd;clip-rule:evenodd;stroke-linecap:round;stroke-linejoin:round;stroke-miterlimit:1.5" viewBox="0 0 308 308"><path d="m260.773 145.618-96.885-96.881c-5.576-5.579-14.625-5.579-20.21.001l-20.115 20.119 25.52 25.52c5.933-2.002 12.732-.659 17.459 4.068a17 17 0 0 1 4.031 17.566l24.595 24.599c5.95-2.052 12.818-.726 17.568 4.034 6.644 6.639 6.644 17.402 0 24.045a17 17 0 0 1-12.027 4.983 17 17 0 0 1-12.026-4.983 17.04 17.04 0 0 1-3.7-18.494l-22.936-22.938-.003 60.365a17 17 0 0 1 4.498 3.214c6.643 6.639 6.643 17.398 0 24.052-6.643 6.639-17.409 6.639-24.045 0-6.641-6.652-7.186-17.411-.547-24.052 1.642-1.64 3.261-2.88 5.019-3.709v-60.924c-1.758-.83-3.375-2.061-5.021-3.711-5.029-5.028-5.969-12.41-3.389-18.591L113.54 78.742l-66.364 66.427c-5.581 5.585-5.546 14.634.035 20.215l96.901 96.88c5.578 5.58 14.634 5.58 20.22 0l96.434-96.43c5.581-5.583 5.586-14.637.007-20.216" style="fill:#f34f29;fill-rule:nonzero"/><path d="M304 79v150c0 41.394-33.606 75-75 75H79c-41.394 0-75-33.606-75-75V79C4 37.606 37.606 4 79 4h150c41.394 0 75 33.606 75 75" style="fill:none;stroke:#736490;stroke-width:8px"/></svg>
