<?xml version="1.0" encoding="UTF-8" standalone="no"?>
<!DOCTYPE svg PUBLIC "-//W3C//DTD SVG 1.1//EN" "http://www.w3.org/Graphics/SVG/1.1/DTD/svg11.dtd">
<svg width="100%" height="100%" viewBox="0 0 308 308" version="1.1" xmlns="http://www.w3.org/2000/svg" xmlns:xlink="http://www.w3.org/1999/xlink" xml:space="preserve" xmlns:serif="http://www.serif.com/" style="fill-rule:evenodd;clip-rule:evenodd;stroke-linecap:round;stroke-linejoin:round;stroke-miterlimit:1.5;">
    <g>
        <path d="M260.773,145.618l-96.885,-96.881c-5.576,-5.579 -14.625,-5.579 -20.21,0.001l-20.115,20.119l25.52,25.52c5.933,-2.002 12.732,-0.659 17.459,4.068c4.589,4.593 6.158,11.432 4.031,17.566l24.595,24.599c5.95,-2.052 12.818,-0.726 17.568,4.034c6.644,6.639 6.644,17.402 -0,24.045c-3.188,3.189 -7.517,4.983 -12.027,4.983c-4.509,-0 -8.838,-1.794 -12.026,-4.983c-4.84,-4.845 -6.303,-12.16 -3.7,-18.494l-22.936,-22.938l-0.003,60.365c1.664,0.82 3.183,1.905 4.498,3.214c6.643,6.639 6.643,17.398 -0,24.052c-6.643,6.639 -17.409,6.639 -24.045,-0c-6.641,-6.652 -7.186,-17.411 -0.547,-24.052c1.642,-1.64 3.261,-2.88 5.019,-3.709l-0,-60.924c-1.758,-0.83 -3.375,-2.061 -5.021,-3.711c-5.029,-5.028 -5.969,-12.41 -3.389,-18.591l-25.019,-25.159l-66.364,66.427c-5.581,5.585 -5.546,14.634 0.035,20.215l96.901,96.88c5.578,5.58 14.634,5.58 20.22,0l96.434,-96.43c5.581,-5.583 5.586,-14.637 0.007,-20.216" style="fill:#f34f29;fill-rule:nonzero;"/>
        <path d="M304,79l0,150c0,41.394 -33.606,75 -75,75l-150,0c-41.394,0 -75,-33.606 -75,-75l0,-150c0,-41.394 33.606,-75 75,-75l150,0c41.394,0 75,33.606 75,75Z" style="fill:none;stroke:#736490;stroke-width:8px;"/>
    </g>
</svg>
