<svg xmlns="http://www.w3.org/2000/svg" xml:space="preserve" style="fill-rule:evenodd;clip-rule:evenodd;stroke-linecap:round;stroke-linejoin:round;stroke-miterlimit:1.5" viewBox="0 0 308 308"><path d="M90.561 45.25c-24.971 0-45.311 20.34-45.311 45.311 0 21.869 15.601 40.189 36.251 44.401v64.349c0 20 16.449 36.251 36.248 36.251h.331c2.213 15.333 15.463 27.188 31.39 27.188 17.464 0 31.718-14.253 31.718-31.718 0-17.464-14.254-31.721-31.718-31.721-15.925 0-29.176 11.856-31.39 27.188h-.331c-14.846 0-27.188-12.153-27.188-27.188v-45.687a31.47 31.47 0 0 0 22.498 9.44h5.021c2.214 15.332 15.463 27.187 31.39 27.187s29.174-11.855 31.384-27.187h18.789c2.214 15.332 15.463 27.187 31.389 27.187 17.465 0 31.718-14.256 31.718-31.721 0-17.464-14.253-31.718-31.718-31.718-15.926 0-29.177 11.856-31.389 27.188h-18.787c-2.211-15.332-15.459-27.188-31.386-27.188S120.293 138.668 118.08 154h-5.021c-10.931 0-20.039-7.798-22.069-18.134 24.774-.231 44.886-20.476 44.886-45.305 0-24.971-20.343-45.311-45.315-45.311m0 9.064h.075c19.846 0 36.177 16.33 36.177 36.176l-.001.071.001.068c0 19.85-16.334 36.184-36.184 36.184l-.068-.001-.071.001c-19.846 0-36.176-16.331-36.176-36.177v-.146c0-19.846 16.33-36.176 36.176-36.176zM81.7 67.127c-4.726.024-9.263 3.82-9.263 8.991v28.96c0 6.87 8.002 11.322 13.841 7.702l23.167-14.367c5.534-3.432 5.563-11.897.054-15.369L86.33 68.448a8.53 8.53 0 0 0-4.63-1.321m-.199 8.991 23.169 14.593-23.169 14.367zm67.969 59.758h.071c12.389 0 22.583 10.194 22.583 22.583v.141c0 12.391-10.196 22.588-22.588 22.588l-.066-.001-.068.001c-12.392 0-22.59-10.198-22.59-22.59v-.134c0-12.392 10.197-22.588 22.588-22.588zm81.562 0h.072c12.388 0 22.582 10.194 22.582 22.583v.141c0 12.391-10.196 22.588-22.587 22.588l-.067-.001-.068.001c-12.392 0-22.589-10.198-22.589-22.59v-.134c0-12.392 10.196-22.588 22.588-22.588zM158.7 147.687a4.54 4.54 0 0 0-3.206 1.326l-10.705 10.695-3.557-3.541c-1.761-1.755-4.653-1.75-6.408.01a4.534 4.534 0 0 0 .014 6.409l6.753 6.729c1.757 1.751 4.642 1.75 6.399-.002l13.908-13.889a4.53 4.53 0 0 0 .003-6.41 4.54 4.54 0 0 0-3.201-1.325zm81.563 0a4.54 4.54 0 0 0-3.207 1.326l-10.705 10.695-3.556-3.541c-1.761-1.755-4.653-1.75-6.408.01a4.53 4.53 0 0 0 .013 6.409l6.753 6.729c1.757 1.751 4.643 1.75 6.399-.002l13.908-13.889a4.533 4.533 0 0 0 .004-6.41 4.54 4.54 0 0 0-3.201-1.325zm-90.793 60.688h.066c12.392 0 22.588 10.196 22.588 22.588v.141c0 12.388-10.194 22.582-22.583 22.582h-.141c-12.391 0-22.588-10.196-22.588-22.587l.001-.067-.001-.068c0-12.392 10.198-22.589 22.59-22.589zm-9.064 15.861c-3.726 0-6.797 3.07-6.797 6.796 0 3.73 3.073 6.797 6.797 6.797 3.725 0 6.797-3.067 6.797-6.797 0-3.726-3.07-6.796-6.797-6.796m18.124 0c-3.726 0-6.797 3.07-6.797 6.796 0 3.73 3.072 6.797 6.797 6.797s6.797-3.067 6.797-6.797c0-3.726-3.07-6.796-6.797-6.796m-18.124 4.53a2.24 2.24 0 0 1 2.267 2.266c0 1.28-.991 2.264-2.267 2.264a2.234 2.234 0 0 1-2.267-2.264 2.24 2.24 0 0 1 2.267-2.266m18.124 0a2.24 2.24 0 0 1 2.267 2.266c0 1.28-.991 2.264-2.267 2.264a2.23 2.23 0 0 1-2.263-2.264c0-1.274.99-2.266 2.263-2.266" style="fill:#2088ff;fill-rule:nonzero"/><path d="M231.032 199.311c-15.943 0-29.206 11.883-31.396 27.241q-.225-.02-.45-.019l-4.588.153c-2.484.081-4.46 2.191-4.381 4.674.082 2.484 2.192 4.461 4.676 4.381l4.588-.148.165-.01c2.221 15.322 15.466 27.167 31.386 27.167 17.465 0 31.718-14.253 31.718-31.718 0-17.464-14.253-31.721-31.718-31.721m0 9.064h.067c12.391 0 22.587 10.196 22.587 22.588v.141c0 12.388-10.194 22.582-22.582 22.582h-.141c-12.392 0-22.588-10.196-22.588-22.587v-.135c0-12.392 10.197-22.589 22.589-22.589z" style="fill:#79b8ff;fill-rule:nonzero"/><path d="M304 79v150c0 41.394-33.606 75-75 75H79c-41.394 0-75-33.606-75-75V79C4 37.606 37.606 4 79 4h150c41.394 0 75 33.606 75 75" style="fill:none;stroke:#736490;stroke-width:8px"/></svg>
