<?xml version="1.0" encoding="UTF-8" standalone="no"?>
<!DOCTYPE svg PUBLIC "-//W3C//DTD SVG 1.1//EN" "http://www.w3.org/Graphics/SVG/1.1/DTD/svg11.dtd">
<svg width="100%" height="100%" viewBox="0 0 308 308" version="1.1" xmlns="http://www.w3.org/2000/svg" xmlns:xlink="http://www.w3.org/1999/xlink" xml:space="preserve" xmlns:serif="http://www.serif.com/" style="fill-rule:evenodd;clip-rule:evenodd;stroke-linecap:round;stroke-linejoin:round;stroke-miterlimit:1.5;">
    <g>
        <path d="M90.561,45.25c-24.971,0 -45.311,20.34 -45.311,45.311c-0,21.869 15.601,40.189 36.251,44.401l0,64.349c0,20 16.449,36.251 36.248,36.251l0.331,0c2.213,15.333 15.463,27.188 31.39,27.188c17.464,-0 31.718,-14.253 31.718,-31.718c-0,-17.464 -14.254,-31.721 -31.718,-31.721c-15.925,0 -29.176,11.856 -31.39,27.188l-0.331,-0c-14.846,-0 -27.188,-12.153 -27.188,-27.188l0,-45.687c5.922,6.043 14.038,9.448 22.498,9.44l5.021,-0c2.214,15.332 15.463,27.187 31.39,27.187c15.927,0 29.174,-11.855 31.384,-27.187l18.789,-0c2.214,15.332 15.463,27.187 31.389,27.187c17.465,0 31.718,-14.256 31.718,-31.721c0,-17.464 -14.253,-31.718 -31.718,-31.718c-15.926,0 -29.177,11.856 -31.389,27.188l-18.787,-0c-2.211,-15.332 -15.459,-27.188 -31.386,-27.188c-15.927,0 -29.177,11.856 -31.39,27.188l-5.021,-0c-10.931,-0 -20.039,-7.798 -22.069,-18.134c24.774,-0.231 44.886,-20.476 44.886,-45.305c0,-24.971 -20.343,-45.311 -45.315,-45.311m0,9.064c0.025,-0 0.05,-0 0.075,-0c19.846,-0 36.177,16.33 36.177,36.176c-0,0.024 -0,0.048 -0.001,0.071c0.001,0.023 0.001,0.046 0.001,0.068c-0,19.85 -16.334,36.184 -36.184,36.184c-0.022,-0 -0.045,-0 -0.068,-0.001c-0.023,0.001 -0.047,0.001 -0.071,0.001c-19.846,-0 -36.176,-16.331 -36.176,-36.177c-0,-0.025 -0,-0.05 -0,-0.075c-0,-0.023 -0,-0.047 -0,-0.071c-0,-19.846 16.33,-36.176 36.176,-36.176c0.024,-0 0.048,-0 0.071,-0m-8.861,12.813c-4.726,0.024 -9.263,3.82 -9.263,8.991l0,28.96c0,6.87 8.002,11.322 13.841,7.702l23.167,-14.367c5.534,-3.432 5.563,-11.897 0.054,-15.369l-23.169,-14.596c-1.384,-0.876 -2.992,-1.334 -4.63,-1.321m-0.199,8.991l23.169,14.593l-23.169,14.367l0,-28.96Zm67.969,59.758c0.024,0 0.048,0 0.071,0c12.389,0 22.583,10.194 22.583,22.583c-0,0.023 -0,0.047 -0,0.071c-0,0.023 -0,0.047 -0,0.07c-0,12.391 -10.196,22.588 -22.588,22.588c-0.022,-0 -0.044,-0 -0.066,-0.001c-0.023,0.001 -0.045,0.001 -0.068,0.001c-12.392,-0 -22.59,-10.198 -22.59,-22.59c0,-0.023 0,-0.045 0,-0.068c0,-0.022 0,-0.044 0,-0.066c0,-12.392 10.197,-22.588 22.588,-22.588c0.023,0 0.047,0 0.07,0m81.562,0c0.024,0 0.048,0 0.072,0c12.388,0 22.582,10.194 22.582,22.583c0,0.023 0,0.047 0,0.071c0,0.023 0,0.047 0,0.07c0,12.391 -10.196,22.588 -22.587,22.588c-0.022,-0 -0.044,-0 -0.067,-0.001c-0.022,0.001 -0.045,0.001 -0.068,0.001c-12.392,-0 -22.589,-10.198 -22.589,-22.59c-0,-0.023 -0,-0.045 0,-0.068c-0,-0.022 -0,-0.044 -0,-0.066c-0,-12.392 10.196,-22.588 22.588,-22.588c0.023,0 0.046,0 0.069,0m-72.332,11.811c-1.202,-0 -2.356,0.477 -3.206,1.326l-10.705,10.695l-3.557,-3.541c-1.761,-1.755 -4.653,-1.75 -6.408,0.01c-0.845,0.849 -1.32,1.999 -1.32,3.198c-0,1.205 0.48,2.361 1.334,3.211l6.753,6.729c1.757,1.751 4.642,1.75 6.399,-0.002l13.908,-13.889c0.851,-0.85 1.329,-2.004 1.329,-3.206c0,-1.201 -0.477,-2.354 -1.326,-3.204c-0.849,-0.847 -2.001,-1.324 -3.201,-1.325l0,-0.002Zm81.563,0c-1.202,-0 -2.356,0.477 -3.207,1.326l-10.705,10.695l-3.556,-3.541c-1.761,-1.755 -4.653,-1.75 -6.408,0.01c-0.846,0.849 -1.321,1.999 -1.321,3.198c0,1.205 0.481,2.361 1.334,3.211l6.753,6.729c1.757,1.751 4.643,1.75 6.399,-0.002l13.908,-13.889c0.851,-0.85 1.33,-2.004 1.33,-3.206c-0,-1.201 -0.477,-2.354 -1.326,-3.204c-0.85,-0.847 -2.001,-1.324 -3.201,-1.325l-0,-0.002Zm-90.793,60.688c0.022,-0 0.044,-0 0.066,-0c12.392,-0 22.588,10.196 22.588,22.588c-0,0.023 -0,0.046 -0,0.069c-0,0.024 -0,0.048 -0,0.072c-0,12.388 -10.194,22.582 -22.583,22.582c-0.023,0 -0.047,0 -0.071,0c-0.023,0 -0.047,0 -0.07,0c-12.391,0 -22.588,-10.196 -22.588,-22.587c0,-0.022 0,-0.044 0.001,-0.067c-0.001,-0.022 -0.001,-0.045 -0.001,-0.068c0,-12.392 10.198,-22.589 22.59,-22.589c0.023,-0 0.045,-0 0.068,-0m-9.064,15.861c-3.726,-0 -6.797,3.07 -6.797,6.796c0,3.73 3.073,6.797 6.797,6.797c3.725,0 6.797,-3.067 6.797,-6.797c0,-3.726 -3.07,-6.796 -6.797,-6.796m18.124,-0c-3.726,-0 -6.797,3.07 -6.797,6.796c0,3.73 3.072,6.797 6.797,6.797c3.725,0 6.797,-3.067 6.797,-6.797c-0,-3.726 -3.07,-6.796 -6.797,-6.796m-18.124,4.53c1.275,-0 2.267,0.994 2.267,2.266c0,1.28 -0.991,2.264 -2.267,2.264c-1.274,-0 -2.267,-0.986 -2.267,-2.264c0,-1.274 0.995,-2.266 2.267,-2.266m18.124,-0c1.275,-0 2.267,0.994 2.267,2.266c-0,1.28 -0.991,2.264 -2.267,2.264c-1.274,-0 -2.263,-0.986 -2.263,-2.264c-0,-1.274 0.99,-2.266 2.263,-2.266" style="fill:#2088ff;fill-rule:nonzero;"/>
        <path d="M231.032,199.311c-15.943,0 -29.206,11.883 -31.396,27.241c-0.15,-0.013 -0.3,-0.02 -0.45,-0.019l-4.588,0.153c-2.484,0.081 -4.46,2.191 -4.381,4.674c0.082,2.484 2.192,4.461 4.676,4.381l4.588,-0.148l0.165,-0.01c2.221,15.322 15.466,27.167 31.386,27.167c17.465,0 31.718,-14.253 31.718,-31.718c0,-17.464 -14.253,-31.721 -31.718,-31.721m0,9.064c0.023,-0 0.045,-0 0.067,-0c12.391,-0 22.587,10.196 22.587,22.588c0,0.023 0,0.046 0,0.069c0,0.024 0,0.048 0,0.072c0,12.388 -10.194,22.582 -22.582,22.582c-0.024,0 -0.048,0 -0.072,0c-0.023,0 -0.046,0 -0.069,0c-12.392,0 -22.588,-10.196 -22.588,-22.587c-0,-0.022 -0,-0.044 0,-0.067c-0,-0.022 -0,-0.045 -0,-0.068c-0,-12.392 10.197,-22.589 22.589,-22.589c0.023,-0 0.046,-0 0.068,0" style="fill:#79b8ff;fill-rule:nonzero;"/>
        <path d="M304,79l0,150c0,41.394 -33.606,75 -75,75l-150,0c-41.394,0 -75,-33.606 -75,-75l0,-150c0,-41.394 33.606,-75 75,-75l150,0c41.394,0 75,33.606 75,75Z" style="fill:none;stroke:#736490;stroke-width:8px;"/>
    </g>
</svg>
