<svg xmlns="http://www.w3.org/2000/svg" xml:space="preserve" style="fill-rule:evenodd;clip-rule:evenodd;stroke-linecap:round;stroke-linejoin:round;stroke-miterlimit:1.5" viewBox="0 0 308 308"><path d="m84.774 43.751 132.721 76.628a11.48 11.48 0 0 1 5.732 9.932v25.496c0 2.048-.546 4.019-1.535 5.735 0 0-105.363-60.83-131.234-75.768a11.38 11.38 0 0 1-5.684-9.848z" style="fill:#706bc8"/><path d="M217.543 219.224a11.38 11.38 0 0 1 5.684 9.846v32.174L90.509 184.619a11.48 11.48 0 0 1-5.735-9.932v-25.496c0-2.051.546-4.022 1.535-5.735 0 0 105.363 60.83 131.234 75.768" style="fill:#55c5e4"/><path d="M97.544 173.935a8.4 8.4 0 0 0-3.104 3.104c-2.322 4.019-.972 9.218 3.007 11.583h-.002l-6.937-4.004a11.48 11.48 0 0 1-5.735-9.932V149.19c0-4.099 2.186-7.884 5.735-9.933l119.951-69.246.058-.033a8.4 8.4 0 0 0 3.044-3.07c2.323-4.021.972-9.218-3.006-11.585h.003l6.936 4.005a11.48 11.48 0 0 1 5.735 9.933v25.495c0 4.099-2.186 7.884-5.735 9.933l-7.131 4.117.096-.062z" style="fill:#84ddea"/><path d="M97.544 234.986a8.45 8.45 0 0 0-3.104 3.103c-2.322 4.021-.972 9.217 3.007 11.585h-.002l-6.937-4.005a11.48 11.48 0 0 1-5.735-9.932v-25.496c0-4.098 2.186-7.884 5.735-9.932l119.951-69.246.058-.034a8.4 8.4 0 0 0 3.044-3.071c2.323-4.021.972-9.217-3.006-11.585h.003l6.936 4.007a11.48 11.48 0 0 1 5.735 9.932v25.496c0 4.096-2.186 7.884-5.735 9.932l-7.131 4.115.096-.06z" style="fill:#997bc8"/><path d="M304 79v150c0 41.394-33.606 75-75 75H79c-41.394 0-75-33.606-75-75V79C4 37.606 37.606 4 79 4h150c41.394 0 75 33.606 75 75" style="fill:none;stroke:#736490;stroke-width:8px"/></svg>
