<?xml version="1.0" encoding="UTF-8" standalone="no"?>
<!DOCTYPE svg PUBLIC "-//W3C//DTD SVG 1.1//EN" "http://www.w3.org/Graphics/SVG/1.1/DTD/svg11.dtd">
<svg width="100%" height="100%" viewBox="0 0 308 308" version="1.1" xmlns="http://www.w3.org/2000/svg" xmlns:xlink="http://www.w3.org/1999/xlink" xml:space="preserve" xmlns:serif="http://www.serif.com/" style="fill-rule:evenodd;clip-rule:evenodd;stroke-linecap:round;stroke-linejoin:round;stroke-miterlimit:1.5;">
    <g>
        <path d="M84.774,43.751l132.721,76.628c3.543,2.046 5.733,5.84 5.732,9.932l0,25.496c0,2.048 -0.546,4.019 -1.535,5.735c0,-0 -105.363,-60.83 -131.234,-75.768c-3.514,-2.029 -5.685,-5.791 -5.684,-9.848l-0,-32.175Z" style="fill:#706bc8;"/>
        <path d="M217.543,219.224c3.514,2.028 5.685,5.789 5.684,9.846l0,32.174l-132.718,-76.625c-3.545,-2.046 -5.735,-5.84 -5.735,-9.932l-0,-25.496c-0,-2.051 0.546,-4.022 1.535,-5.735c-0,-0 105.363,60.83 131.234,75.768" style="fill:#55c5e4;"/>
        <path d="M97.544,173.935c-1.291,0.742 -2.362,1.814 -3.104,3.104c-2.322,4.019 -0.972,9.218 3.007,11.583l-0.002,0l-6.937,-4.004c-3.545,-2.046 -5.735,-5.84 -5.735,-9.932l0,-25.496c0,-4.099 2.186,-7.884 5.735,-9.933l119.951,-69.246l0.058,-0.033c1.265,-0.741 2.314,-1.799 3.044,-3.07c2.323,-4.021 0.972,-9.218 -3.006,-11.585l0.003,-0l6.936,4.005c3.544,2.046 5.735,5.84 5.735,9.933l-0,25.495c-0,4.099 -2.186,7.884 -5.735,9.933l-7.131,4.117l0.096,-0.062l-112.915,65.191Z" style="fill:#84ddea;"/>
        <path d="M97.544,234.986c-1.29,0.743 -2.361,1.813 -3.104,3.103c-2.322,4.021 -0.972,9.217 3.007,11.585l-0.002,0l-6.937,-4.005c-3.544,-2.046 -5.735,-5.839 -5.735,-9.932l0,-25.496c0,-4.098 2.186,-7.884 5.735,-9.932l119.951,-69.246l0.058,-0.034c1.225,-0.719 2.286,-1.754 3.044,-3.071c2.323,-4.021 0.972,-9.217 -3.006,-11.585l0.003,-0l6.936,4.007c3.545,2.045 5.735,5.839 5.735,9.932l-0,25.496c-0,4.096 -2.186,7.884 -5.735,9.932l-7.131,4.115l0.096,-0.06l-112.915,65.191Z" style="fill:#997bc8;"/>
        <path d="M304,79l0,150c0,41.394 -33.606,75 -75,75l-150,0c-41.394,0 -75,-33.606 -75,-75l0,-150c0,-41.394 33.606,-75 75,-75l150,0c41.394,0 75,33.606 75,75Z" style="fill:none;stroke:#736490;stroke-width:8px;"/>
    </g>
</svg>
