<svg xmlns="http://www.w3.org/2000/svg" xml:space="preserve" style="fill-rule:evenodd;clip-rule:evenodd;stroke-linecap:round;stroke-linejoin:round;stroke-miterlimit:1.5" viewBox="0 0 308 308"><path d="M50.307 75.006c-11.627 0-21.153 9.696-21.153 21.278v115.432c0 11.582 9.526 21.278 21.151 21.278h207.39c11.625 0 21.151-9.696 21.151-21.278V96.286c0-11.582-9.528-21.278-21.151-21.278H56.18l-.004-.004zm-.014 19.011h207.402c1.245 0 2.144.843 2.144 2.271v115.428c0 1.428-.903 2.271-2.144 2.271H50.305c-1.241 0-2.144-.843-2.144-2.271V96.284c0-1.424.899-2.261 2.132-2.267" style="fill-rule:nonzero"/><path d="M67.78 194.043v-80.086h23.307l23.302 29.445 23.295-29.445h23.301v80.086h-23.301v-45.932l-23.297 29.445-23.304-29.445v45.932zm145.637 0-34.953-38.866h23.303v-41.22h23.304v41.218h23.305z" style="fill-rule:nonzero"/><path d="M304 79v150c0 41.394-33.606 75-75 75H79c-41.394 0-75-33.606-75-75V79C4 37.606 37.606 4 79 4h150c41.394 0 75 33.606 75 75" style="fill:none;stroke:#736490;stroke-width:8px"/></svg>
