<svg xmlns="http://www.w3.org/2000/svg" xml:space="preserve" style="fill-rule:evenodd;clip-rule:evenodd;stroke-linecap:round;stroke-linejoin:round;stroke-miterlimit:1.5" viewBox="0 0 308 308"><path d="M76.935 64.932h165.233c4.445 0 8.102 3.658 8.102 8.102s-3.657 8.102-8.102 8.102H76.935c-4.44-.004-8.093-3.656-8.097-8.096.003-4.443 3.654-8.099 8.097-8.108" style="fill:#696969;fill-rule:nonzero"/><path d="M78.377 48.55h33.214v7.665H78.377z" style="fill:#009fe3;fill-rule:nonzero"/><path d="M121.828 48.55h33.217v7.665h-33.217z" style="fill:#c7d302;fill-rule:nonzero"/><path d="M164.689 48.55h33.228v7.665h-33.228z" style="fill:#f07e16;fill-rule:nonzero"/><path d="M207.382 48.55h33.217v7.665h-33.217zm0 41.023h33.217v56.156h-33.217z" style="fill:#df2815;fill-rule:nonzero"/><path d="M164.689 89.573h33.293v91.228h-33.293z" style="fill:#f07e16;fill-rule:nonzero"/><path d="M121.828 89.573h33.217V226.22h-33.217z" style="fill:#c7d302;fill-rule:nonzero"/><path d="M78.377 89.573h33.214v166.549H78.377z" style="fill:#009fe3;fill-rule:nonzero"/><path d="M304 79v150c0 41.394-33.606 75-75 75H79c-41.394 0-75-33.606-75-75V79C4 37.606 37.606 4 79 4h150c41.394 0 75 33.606 75 75" style="fill:none;stroke:#736490;stroke-width:8px"/></svg>
