<?xml version="1.0" encoding="UTF-8" standalone="no"?>
<!DOCTYPE svg PUBLIC "-//W3C//DTD SVG 1.1//EN" "http://www.w3.org/Graphics/SVG/1.1/DTD/svg11.dtd">
<svg width="100%" height="100%" viewBox="0 0 308 308" version="1.1" xmlns="http://www.w3.org/2000/svg" xmlns:xlink="http://www.w3.org/1999/xlink" xml:space="preserve" xmlns:serif="http://www.serif.com/" style="fill-rule:evenodd;clip-rule:evenodd;stroke-linecap:round;stroke-linejoin:round;stroke-miterlimit:1.5;">
    <g>
        <path d="M76.935,64.932l165.233,0c4.445,0 8.102,3.658 8.102,8.102c0,4.445 -3.657,8.102 -8.102,8.102l-165.233,0c-4.44,-0.004 -8.093,-3.656 -8.097,-8.096c0.003,-4.443 3.654,-8.099 8.097,-8.108" style="fill:#696969;fill-rule:nonzero;"/>
        <rect x="78.377" y="48.55" width="33.214" height="7.665" style="fill:#009fe3;fill-rule:nonzero;"/>
        <rect x="121.828" y="48.55" width="33.217" height="7.665" style="fill:#c7d302;fill-rule:nonzero;"/>
        <rect x="164.689" y="48.55" width="33.228" height="7.665" style="fill:#f07e16;fill-rule:nonzero;"/>
        <path d="M207.382,48.55l33.217,-0l0,7.665l-33.217,0l0,-7.665Zm0,41.023l33.217,-0l0,56.156l-33.217,0l0,-56.156Z" style="fill:#df2815;fill-rule:nonzero;"/>
        <rect x="164.689" y="89.573" width="33.293" height="91.228" style="fill:#f07e16;fill-rule:nonzero;"/>
        <rect x="121.828" y="89.573" width="33.217" height="136.647" style="fill:#c7d302;fill-rule:nonzero;"/>
        <rect x="78.377" y="89.573" width="33.214" height="166.549" style="fill:#009fe3;fill-rule:nonzero;"/>
        <path d="M304,79l0,150c0,41.394 -33.606,75 -75,75l-150,0c-41.394,0 -75,-33.606 -75,-75l0,-150c0,-41.394 33.606,-75 75,-75l150,0c41.394,0 75,33.606 75,75Z" style="fill:none;stroke:#736490;stroke-width:8px;"/>
    </g>
</svg>
