<?xml version="1.0" encoding="UTF-8" standalone="no"?>
<!DOCTYPE svg PUBLIC "-//W3C//DTD SVG 1.1//EN" "http://www.w3.org/Graphics/SVG/1.1/DTD/svg11.dtd">
<svg width="100%" height="100%" viewBox="0 0 308 308" version="1.1" xmlns="http://www.w3.org/2000/svg" xmlns:xlink="http://www.w3.org/1999/xlink" xml:space="preserve" xmlns:serif="http://www.serif.com/" style="fill-rule:evenodd;clip-rule:evenodd;stroke-linecap:round;stroke-linejoin:round;stroke-miterlimit:1.5;">
    <g>
        <path d="M154.215,44.836c-8.905,0.042 -17.406,0.799 -24.89,2.124c-22.043,3.894 -26.043,12.044 -26.043,27.078l0,19.851l52.087,0l0,6.617l-71.636,0c-15.137,0 -28.392,9.098 -32.539,26.412c-4.785,19.838 -4.995,32.22 -0,52.937c3.701,15.421 12.544,26.407 27.683,26.407l17.911,-0l-0,-23.798c-0,-17.194 14.873,-32.358 32.539,-32.358l52.028,0c14.483,0 26.042,-11.926 26.042,-26.468l-0,-49.598c-0,-14.118 -11.91,-24.722 -26.042,-27.078c-8.953,-1.489 -18.236,-2.166 -27.14,-2.126m-28.168,15.965c5.379,0 9.775,4.466 9.775,9.959c-0,5.469 -4.394,9.893 -9.775,9.893c-5.4,-0 -9.773,-4.424 -9.773,-9.893c-0.002,-5.493 4.373,-9.959 9.773,-9.959" style="fill:url(#_Linear1);fill-rule:nonzero;"/>
        <path d="M213.892,100.504l-0,23.134c-0,17.929 -15.205,33.022 -32.54,33.022l-52.027,-0c-14.251,-0 -26.043,12.198 -26.043,26.47l0,49.602c0,14.114 12.273,22.419 26.043,26.467c16.487,4.845 32.299,5.722 52.027,-0c13.112,-3.799 26.043,-11.439 26.043,-26.467l-0,-19.853l-52.026,-0l0,-6.619l78.072,-0c15.137,-0 20.782,-10.558 26.047,-26.408c5.438,-16.316 5.204,-32.007 -0,-52.936c-3.742,-15.072 -10.887,-26.412 -26.047,-26.412l-19.549,0Zm-29.264,125.609c5.402,0 9.775,4.424 9.775,9.897c0,5.489 -4.375,9.955 -9.775,9.955c-5.379,-0 -9.772,-4.466 -9.772,-9.955c-0,-5.473 4.393,-9.897 9.772,-9.897" style="fill:url(#_Linear2);fill-rule:nonzero;"/>
        <path d="M225.761,271.275c0,7.473 -31.252,13.534 -69.801,13.534c-38.551,-0 -69.804,-6.061 -69.804,-13.534c0,-7.474 31.251,-13.536 69.804,-13.536c38.549,0 69.801,6.058 69.801,13.536" style="fill:url(#_Radial3);fill-rule:nonzero;"/>
        <path d="M304,79l0,150c0,41.394 -33.606,75 -75,75l-150,0c-41.394,0 -75,-33.606 -75,-75l0,-150c0,-41.394 33.606,-75 75,-75l150,0c41.394,0 75,33.606 75,75Z" style="fill:none;stroke:#736490;stroke-width:8px;"/>
    </g>
    <defs>
        <linearGradient id="_Linear1" x1="0" y1="0" x2="1" y2="0" gradientUnits="userSpaceOnUse" gradientTransform="matrix(119.241,103.502,-103.502,119.241,42.3043,51.0427)"><stop offset="0" style="stop-color:#5a9fd4;stop-opacity:1"/><stop offset="1" style="stop-color:#306998;stop-opacity:1"/></linearGradient>
        <linearGradient id="_Linear2" x1="0" y1="0" x2="1" y2="0" gradientUnits="userSpaceOnUse" gradientTransform="matrix(-42.5794,-60.7761,60.7761,-42.5794,207.641,217.181)"><stop offset="0" style="stop-color:#ffd43b;stop-opacity:1"/><stop offset="1" style="stop-color:#ffe873;stop-opacity:1"/></linearGradient>
        <radialGradient id="_Radial3" cx="0" cy="0" r="1" gradientUnits="userSpaceOnUse" gradientTransform="matrix(0,-13.5386,-59.5136,0,155.678,270.887)"><stop offset="0" style="stop-color:#b8b8b8;stop-opacity:0.22"/><stop offset="1" style="stop-color:#7f7f7f;stop-opacity:0"/></radialGradient>
    </defs>
</svg>
