<svg xmlns="http://www.w3.org/2000/svg" xml:space="preserve" style="fill-rule:evenodd;clip-rule:evenodd;stroke-linecap:round;stroke-linejoin:round;stroke-miterlimit:1.5" viewBox="0 0 308 308"><clipPath id="a"><path d="M46.898 45.25h214.205v217.5H46.898z"/></clipPath><g clip-path="url(#a)"><path d="M143.323 150.058c-2.845.408-4.803 3.024-4.384 5.828.278 2.059 1.743 3.76 3.715 4.316s12.501 4.18 33.771 5.964c17.086 1.445 36.481-1.24 36.481-1.24 2.845-.068 5.071-2.464 5.004-5.353-.067-2.808-2.361-5.082-5.128-5.082q-.072 0-.144.002c-.334 0-.669.068-1.02.136 0 0-18.978 2.396-34.39 1.104-20.333-1.648-31.411-5.42-31.411-5.42-.804-.272-1.69-.408-2.494-.272zm0-25.862c-2.845.408-4.803 3.024-4.384 5.828.278 2.059 1.743 3.76 3.715 4.316s12.501 4.18 33.771 5.964c17.086 1.445 36.481-1.24 36.481-1.24 2.845-.068 5.071-2.464 5.004-5.353-.067-2.809-2.361-5.082-5.128-5.082q-.072 0-.144.002c-.334 0-.669.068-1.02.136 0 0-18.978 2.395-34.39 1.104-20.333-1.648-31.411-5.42-31.411-5.42-.804-.272-1.69-.408-2.494-.272zm0-25.862c-2.845.407-4.803 3.024-4.384 5.828.278 2.058 1.743 3.76 3.715 4.316s12.501 4.18 33.771 5.964c17.086 1.445 36.481-1.24 36.481-1.24 2.845-.068 5.071-2.464 5.004-5.353-.067-2.809-2.361-5.082-5.128-5.082q-.072 0-.144.002c-.334 0-.669.068-1.02.135 0 0-18.978 2.396-34.39 1.105-20.333-1.648-31.411-5.421-31.411-5.421-.804-.271-1.69-.339-2.494-.271zm0-25.795c-2.845.408-4.803 3.025-4.384 5.829.278 2.058 1.743 3.76 3.715 4.316s12.501 4.18 33.771 5.964c17.086 1.444 36.481-1.24 36.481-1.24 2.845-.068 5.071-2.464 5.004-5.353-.067-2.809-2.361-5.083-5.128-5.083l-.144.002c-.334 0-.669.068-1.02.136 0 0-18.978 2.396-34.39 1.105-20.333-1.648-31.411-5.421-31.411-5.421a4.53 4.53 0 0 0-2.494-.272zM107.662 45.25c-26.759.204-36.683 8.581-36.683 8.581v202.836s9.723-8.513 41.067-7.205c31.344 1.309 37.77 12.489 76.277 13.237s48.162-6.032 48.162-6.032l.536-206.744s-17.287 5.013-51.074 5.284c-33.704.255-41.804-8.717-72.746-9.753a77 77 0 0 0-5.539-.204m22.357 13.237s16.216 5.42 46.138 6.933c25.336 1.308 50.673-2.532 50.673-2.532v183.77s-12.836 6.865-44.916 4.52c-24.868-1.784-52.213-11.384-52.213-11.384l.335-181.29zm-15.597 4.809c2.845 0 5.205 2.328 5.205 5.284s-2.293 5.285-5.205 5.285c0 0-8.384.068-13.505.544-8.584.883-14.458 4.044-14.458 4.044-2.494 1.376-5.673.34-6.962-2.192-1.356-2.532-.335-5.761 2.159-7.069s7.631-4.112 18.241-5.149c6.141-.679 14.525-.747 14.525-.747m-5.003 25.93c2.845-.068 5.003 0 5.003 0 2.845.34 4.87 2.956 4.519 5.828-.278 2.399-2.156 4.306-4.519 4.588s-8.384.068-13.505.544c-8.584.883-14.458 4.044-14.458 4.044-2.494 1.376-5.673.34-6.962-2.192-1.356-2.532-.335-5.76 2.159-7.069 0 0 7.631-4.112 18.241-5.148 3.112-.408 6.694-.544 9.522-.612zm5.003 25.794c2.845 0 5.205 2.328 5.205 5.284s-2.293 5.285-5.205 5.285c0 0-8.384-.068-13.505.476-8.584.883-14.458 4.044-14.458 4.044-2.494 1.376-5.673.34-6.962-2.192-1.356-2.532-.335-5.76 2.159-7.069 0 0 7.631-4.112 18.241-5.148 6.141-.748 14.525-.68 14.525-.68" style="fill:#32322a;fill-rule:nonzero"/></g><path d="M304 79v150c0 41.394-33.606 75-75 75H79c-41.394 0-75-33.606-75-75V79C4 37.606 37.606 4 79 4h150c41.394 0 75 33.606 75 75" style="fill:none;stroke:#736490;stroke-width:8px"/></svg>
