<?xml version="1.0" encoding="UTF-8" standalone="no"?>
<!DOCTYPE svg PUBLIC "-//W3C//DTD SVG 1.1//EN" "http://www.w3.org/Graphics/SVG/1.1/DTD/svg11.dtd">
<svg width="100%" height="100%" viewBox="0 0 308 308" version="1.1" xmlns="http://www.w3.org/2000/svg" xmlns:xlink="http://www.w3.org/1999/xlink" xml:space="preserve" xmlns:serif="http://www.serif.com/" style="fill-rule:evenodd;clip-rule:evenodd;stroke-linecap:round;stroke-linejoin:round;stroke-miterlimit:1.5;">
    <g>
        <clipPath id="_clip1">
            <rect id="readthedocs-original.svg" x="46.898" y="45.25" width="214.205" height="217.5"/>
        </clipPath>
        <g clip-path="url(#_clip1)">
            <path d="M143.323,150.058c-2.845,0.408 -4.803,3.024 -4.384,5.828c0.278,2.059 1.743,3.76 3.715,4.316c1.972,0.556 12.501,4.18 33.771,5.964c17.086,1.445 36.481,-1.24 36.481,-1.24c2.845,-0.068 5.071,-2.464 5.004,-5.353c-0.067,-2.808 -2.361,-5.082 -5.128,-5.082c-0.048,-0 -0.096,0 -0.144,0.002c-0.334,-0 -0.669,0.068 -1.02,0.136c-0,-0 -18.978,2.396 -34.39,1.104c-20.333,-1.648 -31.411,-5.42 -31.411,-5.42c-0.804,-0.272 -1.69,-0.408 -2.494,-0.272l0,0.017Zm0,-25.862c-2.845,0.408 -4.803,3.024 -4.384,5.828c0.278,2.059 1.743,3.76 3.715,4.316c1.972,0.556 12.501,4.18 33.771,5.964c17.086,1.445 36.481,-1.24 36.481,-1.24c2.845,-0.068 5.071,-2.464 5.004,-5.353c-0.067,-2.809 -2.361,-5.082 -5.128,-5.082c-0.048,-0 -0.096,0 -0.144,0.002c-0.334,-0 -0.669,0.068 -1.02,0.136c-0,-0 -18.978,2.395 -34.39,1.104c-20.333,-1.648 -31.411,-5.42 -31.411,-5.42c-0.804,-0.272 -1.69,-0.408 -2.494,-0.272l0,0.017Zm0,-25.862c-2.845,0.407 -4.803,3.024 -4.384,5.828c0.278,2.058 1.743,3.76 3.715,4.316c1.972,0.556 12.501,4.18 33.771,5.964c17.086,1.445 36.481,-1.24 36.481,-1.24c2.845,-0.068 5.071,-2.464 5.004,-5.353c-0.067,-2.809 -2.361,-5.082 -5.128,-5.082c-0.048,-0 -0.096,0 -0.144,0.002c-0.334,-0 -0.669,0.068 -1.02,0.135c-0,0 -18.978,2.396 -34.39,1.105c-20.333,-1.648 -31.411,-5.421 -31.411,-5.421c-0.804,-0.271 -1.69,-0.339 -2.494,-0.271l0,0.017Zm0,-25.795c-2.845,0.408 -4.803,3.025 -4.384,5.829c0.278,2.058 1.743,3.76 3.715,4.316c1.972,0.556 12.501,4.18 33.771,5.964c17.086,1.444 36.481,-1.24 36.481,-1.24c2.845,-0.068 5.071,-2.464 5.004,-5.353c-0.067,-2.809 -2.361,-5.083 -5.128,-5.083c-0.048,0 -0.096,0.001 -0.144,0.002c-0.334,0 -0.669,0.068 -1.02,0.136c-0,0 -18.978,2.396 -34.39,1.105c-20.333,-1.648 -31.411,-5.421 -31.411,-5.421c-0.79,-0.324 -1.654,-0.418 -2.494,-0.272l0,0.017Zm-35.661,-27.289c-26.759,0.204 -36.683,8.581 -36.683,8.581l0,202.836c0,-0 9.723,-8.513 41.067,-7.205c31.344,1.309 37.77,12.489 76.277,13.237c38.507,0.748 48.162,-6.032 48.162,-6.032l0.536,-206.744c-0,-0 -17.287,5.013 -51.074,5.284c-33.704,0.255 -41.804,-8.717 -72.746,-9.753c-1.891,-0.136 -3.715,-0.204 -5.539,-0.204m22.357,13.237c0,-0 16.216,5.42 46.138,6.933c25.336,1.308 50.673,-2.532 50.673,-2.532l-0,183.77c-0,0 -12.836,6.865 -44.916,4.52c-24.868,-1.784 -52.213,-11.384 -52.213,-11.384l0.335,-181.29l-0.017,-0.017Zm-15.597,4.809c2.845,-0 5.205,2.328 5.205,5.284c-0,2.957 -2.293,5.285 -5.205,5.285c0,-0 -8.384,0.068 -13.505,0.544c-8.584,0.883 -14.458,4.044 -14.458,4.044c-2.494,1.376 -5.673,0.34 -6.962,-2.192c-1.356,-2.532 -0.335,-5.761 2.159,-7.069c2.493,-1.308 7.631,-4.112 18.241,-5.149c6.141,-0.679 14.525,-0.747 14.525,-0.747m-5.003,25.93c2.845,-0.068 5.003,-0 5.003,-0c2.845,0.34 4.87,2.956 4.519,5.828c-0.278,2.399 -2.156,4.306 -4.519,4.588c-2.362,0.282 -8.384,0.068 -13.505,0.544c-8.584,0.883 -14.458,4.044 -14.458,4.044c-2.494,1.376 -5.673,0.34 -6.962,-2.192c-1.356,-2.532 -0.335,-5.76 2.159,-7.069c-0,0 7.631,-4.112 18.241,-5.148c3.112,-0.408 6.694,-0.544 9.522,-0.612l-0,0.017Zm5.003,25.794c2.845,-0 5.205,2.328 5.205,5.284c-0,2.957 -2.293,5.285 -5.205,5.285c0,0 -8.384,-0.068 -13.505,0.476c-8.584,0.883 -14.458,4.044 -14.458,4.044c-2.494,1.376 -5.673,0.34 -6.962,-2.192c-1.356,-2.532 -0.335,-5.76 2.159,-7.069c-0,0 7.631,-4.112 18.241,-5.148c6.141,-0.748 14.525,-0.68 14.525,-0.68" style="fill:#32322a;fill-rule:nonzero;"/>
        </g>
        <path d="M304,79l0,150c0,41.394 -33.606,75 -75,75l-150,0c-41.394,0 -75,-33.606 -75,-75l0,-150c0,-41.394 33.606,-75 75,-75l150,0c41.394,0 75,33.606 75,75Z" style="fill:none;stroke:#736490;stroke-width:8px;"/>
    </g>
</svg>
