<?xml version="1.0" encoding="UTF-8" standalone="no"?>
<!DOCTYPE svg PUBLIC "-//W3C//DTD SVG 1.1//EN" "http://www.w3.org/Graphics/SVG/1.1/DTD/svg11.dtd">
<svg width="100%" height="100%" viewBox="0 0 308 308" version="1.1" xmlns="http://www.w3.org/2000/svg" xmlns:xlink="http://www.w3.org/1999/xlink" xml:space="preserve" xmlns:serif="http://www.serif.com/" style="fill-rule:evenodd;clip-rule:evenodd;stroke-linecap:round;stroke-linejoin:round;stroke-miterlimit:1.5;">
    <g>
        <path d="M154.989,30.718c-0.449,0.261 -2.326,2.954 -4.176,5.988c-4.641,7.619 -4.691,7.622 -10.925,1.064c-4.057,-4.27 -5.037,-5.051 -6.342,-5.041c-0.851,0.004 -1.924,0.294 -2.388,0.642c-0.465,0.348 -1.772,3.117 -2.909,6.154c-2.602,6.961 -2.726,7.184 -4.168,7.464c-0.89,0.166 -2.597,-0.787 -6.696,-3.73c-3.027,-2.175 -5.995,-3.954 -6.596,-3.954c-2.496,0 -3.2,1.365 -4.389,8.508c-1.508,9.082 -1.458,9.051 -9.645,5.333c-3.306,-1.501 -6.439,-2.727 -6.967,-2.727c-0.528,0 -1.531,0.567 -2.223,1.261c-1.261,1.261 -1.263,1.267 -0.919,8.21l0.344,6.951l-1.314,0.704c-1.164,0.623 -1.967,0.547 -7.124,-0.673c-6.729,-1.589 -8.152,-1.547 -9.513,0.29l-0.998,1.34l1.338,5.731c0.735,3.152 1.441,6.188 1.574,6.743c0.13,0.555 -0.097,1.442 -0.503,1.972c-0.672,0.866 -1.386,0.948 -7.618,0.851c-10.542,-0.166 -11.139,0.739 -6.787,10.248c1.388,3.016 2.523,5.762 2.523,6.091c0,1.736 -1.386,2.367 -7.336,3.339c-3.329,0.542 -6.222,0.986 -6.431,0.986c-0.207,0 -0.831,0.455 -1.386,1.01c-1.812,1.809 -1.298,3.511 2.809,9.308c5.117,7.222 5.109,7.251 -3.345,10.482c-9.612,3.678 -9.807,4.583 -2.488,11.524c6.816,6.466 6.825,6.371 -0.892,11.223c-5.847,3.67 -5.936,3.759 -6.085,5.75c-0.179,2.423 -0.137,2.466 6.841,6.729c6.903,4.215 6.903,4.343 0.13,10.751c-7.286,6.891 -7.062,7.897 2.558,11.526c8.405,3.171 8.417,3.21 3.291,10.43c-2.904,4.093 -3.83,5.801 -3.83,7.063c-0,2.365 1.231,2.968 8.585,4.204c6.199,1.044 7.579,1.657 7.579,3.366c0,0.352 -1.136,3.117 -2.527,6.143c-4.323,9.417 -3.83,10.2 6.4,10.2c9.533,0 9.28,-0.29 7.226,8.303c-1.547,6.477 -1.572,7.719 -0.17,9.117c1.071,1.075 3.094,0.955 9.417,-0.559c4.832,-1.152 5.679,-1.232 6.798,-0.634l1.276,0.684l-0.342,6.95c-0.344,6.947 -0.342,6.951 0.919,8.214c0.692,0.696 1.709,1.26 2.252,1.26c0.544,0 3.68,-1.218 6.969,-2.715c8.16,-3.704 8.109,-3.735 9.616,5.318c1.193,7.175 1.889,8.508 4.435,8.508c0.633,-0 3.539,-1.702 6.459,-3.786c5.131,-3.661 6.462,-4.235 7.829,-3.365c0.352,0.223 1.721,3.229 3.039,6.681c1.94,5.075 2.649,6.4 3.73,6.914c2.054,0.986 3.326,0.194 8.156,-5.066c5.832,-6.353 6.072,-6.323 10.832,1.392c5.259,8.52 6.621,8.501 12.012,-0.172c4.644,-7.471 4.59,-7.467 10.868,-0.908c4.171,4.35 5.059,5.046 6.464,5.046c0.898,0 1.971,-0.338 2.379,-0.75c0.413,-0.412 1.779,-3.453 3.032,-6.76c1.254,-3.306 2.554,-6.187 2.89,-6.4c1.329,-0.843 2.703,-0.251 7.827,3.388c3.017,2.142 5.855,3.79 6.53,3.79c2.506,-0 3.411,-1.779 4.451,-8.769c0.89,-5.96 1.072,-6.532 2.243,-7.126c1.153,-0.584 1.845,-0.386 7.251,2.069c3.289,1.489 6.426,2.711 6.969,2.711c0.543,0 1.578,-0.584 2.289,-1.299l1.3,-1.296l-0.356,-6.667c-0.342,-6.361 -0.309,-6.705 0.704,-7.624c1.044,-0.943 1.152,-0.94 6.99,0.395c7.069,1.614 8.388,1.657 9.716,0.328c1.297,-1.295 1.284,-1.581 -0.491,-9.068c-1.992,-8.404 -2.259,-8.102 7.309,-8.102c6.524,-0 7.251,-0.095 8.082,-1.011c1.389,-1.534 1.058,-3.291 -1.732,-9.241c-1.41,-2.997 -2.553,-5.723 -2.543,-6.062c0.046,-1.767 1.437,-2.372 7.86,-3.416c3.931,-0.637 6.87,-1.373 7.404,-1.857c1.785,-1.61 1.129,-3.708 -2.945,-9.422c-5.109,-7.16 -5.085,-7.228 3.092,-10.242c9.792,-3.608 10.072,-4.811 2.744,-11.776c-6.787,-6.448 -6.791,-6.414 0.643,-10.977c8.988,-5.516 9.001,-6.76 0.159,-12.249c-7.605,-4.718 -7.599,-4.652 -0.783,-11.124c7.309,-6.948 7.112,-7.856 -2.504,-11.534c-8.485,-3.247 -8.512,-3.326 -3.355,-10.403c3.071,-4.215 3.833,-5.613 3.833,-7.057c-0,-2.526 -1.134,-3.09 -8.578,-4.293c-6.218,-1.005 -7.587,-1.615 -7.587,-3.384c-0,-0.336 1.137,-3.043 2.527,-6.019c2.719,-5.826 3.101,-8.16 1.562,-9.552c-0.827,-0.748 -1.933,-0.857 -7.864,-0.758c-6.203,0.104 -6.995,0.015 -7.856,-0.849c-0.94,-0.943 -0.928,-1.077 0.538,-7.202c1.8,-7.503 1.808,-7.687 0.328,-9.077c-1.502,-1.411 -2.44,-1.388 -9.331,0.234c-5.022,1.184 -5.853,1.263 -6.994,0.652l-1.295,-0.696l0.357,-6.926l0.36,-6.923l-1.296,-1.295c-0.713,-0.716 -1.722,-1.296 -2.248,-1.296c-0.522,0 -3.643,1.238 -6.928,2.748c-5.488,2.525 -6.078,2.693 -7.265,2.073c-1.183,-0.619 -1.381,-1.232 -2.392,-7.404c-1.166,-7.141 -1.889,-8.531 -4.424,-8.531c-0.601,0 -3.583,1.789 -6.624,3.974c-4.997,3.588 -5.666,3.929 -6.911,3.494c-1.031,-0.36 -1.63,-1.141 -2.361,-3.092c-0.541,-1.435 -1.58,-4.2 -2.309,-6.143c-1.473,-3.922 -2.295,-4.799 -4.501,-4.799c-1.232,-0 -2.346,0.885 -6.342,5.035c-6.284,6.525 -6.306,6.524 -10.925,-1.054c-1.847,-3.028 -3.776,-5.731 -4.289,-6.006c-1.154,-0.619 -2.513,-0.619 -3.577,0.004m5.724,22.812c5.472,3.895 2.563,13.052 -4.146,13.052c-6.512,0 -9.792,-7.844 -5.143,-12.297c2.625,-2.514 6.388,-2.822 9.29,-0.755m-6.879,24.184c3.587,1.363 5.058,0.545 13.249,-7.348l6.152,-5.936l2.605,0.348c8.169,1.083 24.415,8.218 33.751,14.823c8.577,6.072 19.978,18.435 24.837,26.935l1.038,1.822l-4.602,10.371c-2.533,5.704 -4.606,10.97 -4.606,11.704c0,1.698 1.114,4.384 2.185,5.271c0.453,0.377 4.751,2.446 9.55,4.598l8.721,3.916l0.344,2.22c0.445,2.89 0.503,9.991 0.101,12.007l-0.316,1.578l-4.979,0c-5.775,0 -5.329,-0.516 -5.642,6.567c-0.228,5.135 -1.469,7.974 -4.292,9.813c-4.597,2.999 -12.19,2.455 -15.411,-1.103c-0.493,-0.549 -1.454,-3.296 -2.137,-6.11c-1.991,-8.225 -4.665,-12.839 -10.041,-17.334c-1.698,-1.418 -3.084,-2.742 -3.084,-2.943c0,-0.198 1.866,-1.77 4.148,-3.487c8.31,-6.264 13.09,-13.558 13.612,-20.78c1.004,-13.779 -9.973,-26.62 -26.301,-30.783c-3.871,-0.986 -5.524,-1.017 -53.413,-1.017c-27.181,0 -49.423,-0.178 -49.423,-0.394c0,-0.509 6.043,-6.371 9.6,-9.312c9.773,-8.079 22.465,-14.435 35.611,-17.828l4.544,-1.18l6.459,6.549c3.555,3.603 7.038,6.768 7.74,7.033m-81.333,42.139c2.976,1.949 4.196,6.845 2.436,9.788c-2.716,4.555 -9.602,4.747 -12.323,0.344c-3.956,-6.398 3.665,-14.21 9.887,-10.132m175.323,0.251c7.784,4.745 1.752,16.422 -6.582,12.735c-5.563,-2.462 -5.743,-10.067 -0.3,-12.839c2.27,-1.16 4.879,-1.12 6.884,0.102m-152.387,29.064l0,29.043l-25.678,-0l-1.017,-4.419c-2.003,-8.701 -2.846,-17.704 -2.342,-25.076l0.352,-5.181l8.827,-3.958c5.538,-2.48 9.1,-4.373 9.558,-5.075c2.007,-3.063 1.818,-5.25 -1.002,-11.472l-1.315,-2.905l12.613,0l0,29.043m73.92,-27.782c5.497,1.431 8.401,4.341 8.409,8.421c0.004,2.997 -1.479,4.873 -5.163,6.535c-2.606,1.18 -3.02,1.209 -19.458,1.369l-16.795,0.163l0,-17.248l15.047,0c11.753,0 15.686,0.167 17.96,0.76m-5.673,41.677c2.726,0.758 5.947,3.125 7.599,5.584c1.736,2.585 2.751,5.948 5.156,17.085c2.031,9.417 3.34,12.491 7,16.498c4.534,4.961 3.48,4.768 26.131,4.768c10.847,-0 19.718,0.174 19.718,0.387c0,0.381 -7.469,9.211 -7.792,9.211c-0.093,0 -3.995,-0.816 -8.67,-1.815c-13.205,-2.82 -13.68,-2.489 -16.71,11.663l-1.949,9.092l-1.76,0.866c-2.935,1.45 -12.477,4.432 -17.422,5.453c-8.175,1.682 -17.069,2.247 -24.887,1.587c-13.328,-1.131 -30.976,-6.301 -31.666,-9.281c-0.145,-0.632 -1.035,-4.724 -1.969,-9.096c-0.938,-4.369 -2.076,-8.515 -2.533,-9.211c-2.185,-3.334 -4.482,-3.539 -14.593,-1.303c-3.828,0.85 -7.169,1.539 -7.425,1.539c-0.479,-0 -7.585,-8.216 -7.585,-8.769c-0,-0.174 16.876,-0.375 37.504,-0.445l37.502,-0.127l0.135,-13.323c0.097,-9.407 -0.035,-13.529 -0.444,-14.019c-0.453,-0.549 -2.872,-0.692 -11.623,-0.692l-11.051,0l0,-16.165l12.756,0.002c7.011,0.004 13.574,0.232 14.578,0.511m-57.788,60.587c5.963,3.635 3.104,13.156 -3.95,13.148c-7.232,0 -9.914,-9.435 -3.751,-13.198c2.04,-1.244 5.623,-1.218 7.701,0.05m109.209,0.398c2.924,2.143 3.897,6.6 2.087,9.572c-4.757,7.8 -16.652,1.599 -12.679,-6.611c1.953,-4.032 7.145,-5.486 10.592,-2.959" style="fill:#ce412b;fill-rule:nonzero;"/>
        <path d="M304,79l0,150c0,41.394 -33.606,75 -75,75l-150,0c-41.394,0 -75,-33.606 -75,-75l0,-150c0,-41.394 33.606,-75 75,-75l150,0c41.394,0 75,33.606 75,75Z" style="fill:none;stroke:#736490;stroke-width:8px;"/>
    </g>
</svg>
